<svg version="1.1" viewBox="0.0 0.0 357.11811023622045 326.1758530183727" fill="none" stroke="none" stroke-linecap="square" stroke-miterlimit="10" xmlns:xlink="http://www.w3.org/1999/xlink" xmlns="http://www.w3.org/2000/svg"><clipPath id="p.0"><path d="m0 0l357.1181 0l0 326.17584l-357.1181 0l0 -326.17584z" clip-rule="nonzero"/></clipPath><g clip-path="url(#p.0)"><path fill="#000000" fill-opacity="0.0" d="m0 0l357.1181 0l0 326.17584l-357.1181 0z" fill-rule="evenodd"/><path fill="#000000" fill-opacity="0.0" d="m42.51706 162.93701l0 0c0 -76.18921 61.763557 -137.95276 137.95276 -137.95276l0 0c36.58734 0 71.67616 14.534269 97.54733 40.405426c25.871155 25.871162 40.405426 60.959984 40.405426 97.54733l0 0c0 76.18919 -61.76355 137.95276 -137.95276 137.95276l0 0c-76.1892 0 -137.95276 -61.763565 -137.95276 -137.95276z" fill-rule="evenodd"/><path stroke="#000000" stroke-width="16.0" stroke-linejoin="round" stroke-linecap="butt" d="m42.51706 162.93701l0 0c0 -76.18921 61.763557 -137.95276 137.95276 -137.95276l0 0c36.58734 0 71.67616 14.534269 97.54733 40.405426c25.871155 25.871162 40.405426 60.959984 40.405426 97.54733l0 0c0 76.18919 -61.76355 137.95276 -137.95276 137.95276l0 0c-76.1892 0 -137.95276 -61.763565 -137.95276 -137.95276z" fill-rule="evenodd"/><path fill="#000000" fill-opacity="0.0" d="m134.5958 75.2126l112.12599 0l0 120.91339l-112.12599 0z" fill-rule="evenodd"/><path fill="#000000" d="m189.1583 207.0926l-11.625 0l0 -77.0625l-23.3125 8.5625l0 -10.5l33.125 -12.4375l1.8125 0l0 91.4375z" fill-rule="nonzero"/></g></svg>