<svg version="1.1" viewBox="0.0 0.0 357.11811023622045 326.1758530183727" fill="none" stroke="none" stroke-linecap="square" stroke-miterlimit="10" xmlns:xlink="http://www.w3.org/1999/xlink" xmlns="http://www.w3.org/2000/svg"><clipPath id="p.0"><path d="m0 0l357.1181 0l0 326.17584l-357.1181 0l0 -326.17584z" clip-rule="nonzero"/></clipPath><g clip-path="url(#p.0)"><path fill="#000000" fill-opacity="0.0" d="m0 0l357.1181 0l0 326.17584l-357.1181 0z" fill-rule="evenodd"/><path fill="#000000" fill-opacity="0.0" d="m42.51706 162.93701l0 0c0 -76.18921 61.763557 -137.95276 137.95276 -137.95276l0 0c36.58734 0 71.67616 14.534269 97.54733 40.405426c25.871155 25.871162 40.405426 60.959984 40.405426 97.54733l0 0c0 76.18919 -61.76355 137.95276 -137.95276 137.95276l0 0c-76.1892 0 -137.95276 -61.763565 -137.95276 -137.95276z" fill-rule="evenodd"/><path stroke="#000000" stroke-width="16.0" stroke-linejoin="round" stroke-linecap="butt" d="m42.51706 162.93701l0 0c0 -76.18921 61.763557 -137.95276 137.95276 -137.95276l0 0c36.58734 0 71.67616 14.534269 97.54733 40.405426c25.871155 25.871162 40.405426 60.959984 40.405426 97.54733l0 0c0 76.18919 -61.76355 137.95276 -137.95276 137.95276l0 0c-76.1892 0 -137.95276 -61.763565 -137.95276 -137.95276z" fill-rule="evenodd"/><path fill="#000000" fill-opacity="0.0" d="m134.5958 75.2126l112.12599 0l0 120.91339l-112.12599 0z" fill-rule="evenodd"/><path stroke="#ffffff" stroke-width="1.0" stroke-linejoin="round" stroke-linecap="butt" d="m134.5958 75.2126l112.12599 0l0 120.91339l-112.12599 0z" fill-rule="evenodd"/><path fill="#000000" d="m210.7833 207.0926l-59.625 0l0 -8.3125l31.5 -35.0q7.0 -7.9375 9.65625 -12.90625q2.65625 -4.96875 2.65625 -10.28125q0 -7.125 -4.3125 -11.6875q-4.3125 -4.5625 -11.5 -4.5625q-8.625 0 -13.40625 4.90625q-4.78125 4.90625 -4.78125 13.65625l-11.5625 0q0 -12.5625 8.09375 -20.3125q8.09375 -7.75 21.65625 -7.75q12.6875 0 20.0625 6.65625q7.375 6.65625 7.375 17.71875q0 13.4375 -17.125 32.0l-24.375 26.4375l45.6875 0l0 9.4375z" fill-rule="nonzero"/></g></svg>