<svg version="1.1" viewBox="0.0 0.0 357.11811023622045 326.1758530183727" fill="none" stroke="none" stroke-linecap="square" stroke-miterlimit="10" xmlns:xlink="http://www.w3.org/1999/xlink" xmlns="http://www.w3.org/2000/svg"><clipPath id="p.0"><path d="m0 0l357.1181 0l0 326.17584l-357.1181 0l0 -326.17584z" clip-rule="nonzero"/></clipPath><g clip-path="url(#p.0)"><path fill="#000000" fill-opacity="0.0" d="m0 0l357.1181 0l0 326.17584l-357.1181 0z" fill-rule="evenodd"/><path fill="#000000" fill-opacity="0.0" d="m42.51706 162.93701l0 0c0 -76.18921 61.763557 -137.95276 137.95276 -137.95276l0 0c36.58734 0 71.67616 14.534269 97.54733 40.405426c25.871155 25.871162 40.405426 60.959984 40.405426 97.54733l0 0c0 76.18919 -61.76355 137.95276 -137.95276 137.95276l0 0c-76.1892 0 -137.95276 -61.763565 -137.95276 -137.95276z" fill-rule="evenodd"/><path stroke="#000000" stroke-width="16.0" stroke-linejoin="round" stroke-linecap="butt" d="m42.51706 162.93701l0 0c0 -76.18921 61.763557 -137.95276 137.95276 -137.95276l0 0c36.58734 0 71.67616 14.534269 97.54733 40.405426c25.871155 25.871162 40.405426 60.959984 40.405426 97.54733l0 0c0 76.18919 -61.76355 137.95276 -137.95276 137.95276l0 0c-76.1892 0 -137.95276 -61.763565 -137.95276 -137.95276z" fill-rule="evenodd"/><path fill="#000000" fill-opacity="0.0" d="m134.5958 75.2126l112.12599 0l0 120.91339l-112.12599 0z" fill-rule="evenodd"/><path stroke="#ffffff" stroke-width="1.0" stroke-linejoin="round" stroke-linecap="butt" d="m134.5958 75.2126l112.12599 0l0 120.91339l-112.12599 0z" fill-rule="evenodd"/><path fill="#000000" d="m167.9708 155.9676l8.6875 0q8.1875 -0.125 12.875 -4.3125q4.6875 -4.1875 4.6875 -11.3125q0 -16.0 -15.9375 -16.0q-7.5 0 -11.96875 4.28125q-4.46875 4.28125 -4.46875 11.34375l-11.5625 0q0 -10.8125 7.90625 -17.96875q7.90625 -7.15625 20.09375 -7.15625q12.875 0 20.1875 6.8125q7.3125 6.8125 7.3125 18.9375q0 5.9375 -3.84375 11.5q-3.84375 5.5625 -10.46875 8.3125q7.5 2.375 11.59375 7.875q4.09375 5.5 4.09375 13.4375q0 12.25 -8.0 19.4375q-8.0 7.1875 -20.8125 7.1875q-12.8125 0 -20.84375 -6.9375q-8.03125 -6.9375 -8.03125 -18.3125l11.625 0q0 7.1875 4.6875 11.5q4.6875 4.3125 12.5625 4.3125q8.375 0 12.8125 -4.375q4.4375 -4.375 4.4375 -12.5625q0 -7.9375 -4.875 -12.1875q-4.875 -4.25 -14.0625 -4.375l-8.6875 0l0 -9.4375z" fill-rule="nonzero"/></g></svg>